<?xml version="1.0" encoding="UTF-8"?> <!-- Generator: Adobe Illustrator 24.3.0, SVG Export Plug-In . SVG Version: 6.00 Build 0) --> <svg xmlns="http://www.w3.org/2000/svg" xmlns:xlink="http://www.w3.org/1999/xlink" version="1.1" id="_x2014_ÎÓÈ_x5F_1" x="0px" y="0px" viewBox="0 0 3400 2000" style="enable-background:new 0 0 3400 2000;" xml:space="preserve"> <style type="text/css"> .st0{display:none;fill:#FFFFFF;} .st1{display:none;fill:#DDE7FE;} .st2{fill:#BDD1F9;} .st3{fill:#0B0755;} .st4{fill:#7C9AF2;} .st5{fill:#91B5F8;} .st6{fill:#060633;} .st7{fill:#6D8AD1;} .st8{fill:#3B4ACC;} .st9{fill:#FB9391;} .st10{fill:#FA7267;} .st11{fill:#4851EC;} .st12{fill:#EA6868;} .st13{fill:#FFFFFF;} .st14{fill:#240D39;} .st15{fill:#272035;} .st16{fill:#474FEA;} .st17{fill:#2F3DBC;} .st18{fill:#17152B;} .st19{fill:#050521;} .st20{fill:#F78181;} .st21{fill:#424BE1;} .st22{fill:#DDE7FE;} </style> <rect x="0" class="st0" width="3400" height="2000"></rect> <g> <path class="st1" d="M2799.4,1769c84.9,4.4,148.2-75.1,190.7-148.7c93.6-162.2,164.8-355.2,111.4-534.7 c-43.8-147-164.7-261.7-207.2-409.1c-15.4-53.4-19.9-109.6-37.5-162.3c-34.6-103.6-121.8-188-226.4-219.3 c-71.2-21.3-146.9-18.9-220.8-26.4c-281-28.7-548.3-202.4-826.6-153.8c-54.8,9.6-109.3,28.5-151.6,64.6 c-30.1,25.7-52.7,58.8-76.5,90.3c-34.2,45.2-71.6,88.1-111.8,128c-44,43.7-91.9,84.2-146.9,112.9c-101.4,52.9-219,61.9-331.1,84.3 C652.8,617.2,535.2,660,472.2,755.4c-21.3,32.3-35,68.9-46.5,105.8c-92.4,298.2-29.1,635.1,156.5,886.2L2799.4,1769z"></path> <g> <path class="st2" d="M2808.5,1338.5c-0.2,0-0.4-0.1-0.6-0.1c-1.5-0.5-2.3-2-1.9-3.5c121.2-390.2,230.7-665.4,308.4-775 c1.7-2.4,3-4.2,3.4-5.1c0.7-1.4,2.5-1.9,3.8-1.2c1.4,0.7,1.9,2.5,1.2,3.8c-0.6,1.2-1.8,2.9-3.8,5.7 c-77.4,109.1-186.6,383.8-307.7,773.4C2811,1337.8,2809.8,1338.6,2808.5,1338.5z"></path> <path class="st2" d="M3168.2,540.2c-9.2,12.3-55.1,34.6-58.6,32s4.9-53,14.1-65.3c9.2-12.3,26.6-14.8,38.9-5.6 C3174.8,510.5,3177.4,527.9,3168.2,540.2z"></path> <path class="st2" d="M3079.5,577c4.4,15.1-5.7,66.4-10,67.6c-4.3,1.3-40.3-36.6-44.6-51.7c-4.4-15.1,4.3-30.9,19.4-35.3 C3059.4,553.3,3075.1,561.9,3079.5,577z"></path> <path class="st2" d="M3133.2,667.3c-15.7,0.9-63.4-20.5-63.6-25c-0.2-4.5,44.8-31,60.5-31.9c15.7-0.9,29.1,11.1,30,26.8 C3160.9,653,3148.9,666.5,3133.2,667.3z"></path> <path class="st2" d="M2942.8,835.1c10,24.4,2.5,111.8-4.4,114.6s-73.8-53.9-83.9-78.3c-10-24.4,1.6-52.3,26-62.3 C2904.9,799.1,2932.8,810.7,2942.8,835.1z"></path> <path class="st2" d="M3048.8,976.1c-26,4.3-109.5-22.7-110.7-30.1c-1.2-7.4,69.1-59.8,95.1-64.1c26-4.3,50.6,13.3,54.9,39.3 C3092.4,947.2,3074.8,971.8,3048.8,976.1z"></path> <path class="st2" d="M2873.4,932.3c18.6,26.4,33.1,132.7,25.6,138c-7.5,5.3-102.6-44.4-121.2-70.8s-12.2-62.8,14.2-81.4 C2818.4,899.6,2854.8,905.9,2873.4,932.3z"></path> <path class="st2" d="M3025,1117c-32.2,2-130.4-41.4-130.9-50.6s91.7-64.1,123.9-66c32.2-2,59.9,22.6,61.9,54.8 C3081.8,1087.3,3057.3,1115,3025,1117z"></path> <path class="st2" d="M2829.8,1059.5c18.6,26.4,33.1,132.7,25.6,138c-7.5,5.3-102.6-44.4-121.2-70.8 c-18.6-26.4-12.2-62.8,14.2-81.4C2774.8,1026.7,2811.2,1033.1,2829.8,1059.5z"></path> <path class="st2" d="M2981.5,1244.2c-32.2,2-130.4-41.4-130.9-50.6c-0.6-9.2,91.7-64.1,123.9-66c32.2-2,59.9,22.6,61.9,54.8 C3038.2,1214.5,3013.7,1242.2,2981.5,1244.2z"></path> <path class="st2" d="M2735.3,1219c27.2,17.3,81.2,110.1,76.2,117.9c-5,7.8-111.8-2-139-19.3c-27.2-17.3-35.2-53.5-17.9-80.7 C2672,1209.6,2708.1,1201.6,2735.3,1219z"></path> <path class="st2" d="M2942.8,1370c-31.7,6-134.5-24.8-136.2-33.8c-1.7-9.1,82.9-75,114.6-81c31.7-6,62.3,14.9,68.2,46.6 C2995.4,1333.5,2974.5,1364,2942.8,1370z"></path> <path class="st2" d="M3037.3,657.4c4.5,15.3-5.8,67.4-10.1,68.7c-4.4,1.3-40.9-37.2-45.4-52.6c-4.5-15.3,4.4-31.4,19.7-35.8 C3016.9,633.2,3032.9,642.1,3037.3,657.4z"></path> <path class="st2" d="M3089.8,750.1c-15.9,0.9-64.4-20.8-64.6-25.4c-0.3-4.5,45.5-31.5,61.4-32.4c15.9-0.9,29.6,11.3,30.5,27.3 C3118,735.6,3105.8,749.2,3089.8,750.1z"></path> <path class="st2" d="M2989.4,731.9c8.1,21.2-0.3,96.1-6.4,98.4c-6,2.3-62.3-48-70.4-69.1c-8.1-21.2,2.5-44.9,23.7-53 C2957.5,700.1,2981.3,710.7,2989.4,731.9z"></path> <path class="st2" d="M3074.2,863.8c-22.6,1.3-91.5-29.6-91.8-36s64.6-44.7,87.3-46c22.6-1.3,42,16.1,43.3,38.7 C3114.2,843.2,3096.8,862.6,3074.2,863.8z"></path> </g> <g> <path class="st3" d="M385.4,1420.2c0.1,0,0.1-0.1,0.2-0.1c0.6-0.4,0.7-1.2,0.2-1.8c-112.2-144.2-201.4-242.2-251.3-275.8 c-1.1-0.7-1.9-1.3-2.2-1.6c-0.5-0.5-1.3-0.4-1.8,0.1c-0.5,0.5-0.4,1.3,0.1,1.8c0.5,0.4,1.2,0.9,2.5,1.8 c49.6,33.5,138.6,131.2,250.7,275.3C384.2,1420.3,384.9,1420.5,385.4,1420.2z"></path> <path class="st3" d="M109.1,1142.7c5.8,3.7,28.5,5.8,29.6,4.1c1.1-1.7-10.4-21.4-16.2-25.1c-5.8-3.7-13.5-2-17.2,3.8 C101.6,1131.3,103.3,1139,109.1,1142.7z"></path> <path class="st3" d="M152,1144.2c0.5,7,12.8,26.9,14.8,26.7c2-0.2,11.1-21.7,10.5-28.7c-0.5-7-6.7-12.2-13.7-11.7 C156.7,1131,151.4,1137.2,152,1144.2z"></path> <path class="st3" d="M143.7,1190.4c6.7-2.1,23.3-18.6,22.7-20.5c-0.6-1.9-23.6-5.9-30.3-3.8c-6.7,2.1-10.4,9.2-8.3,16 C129.9,1188.8,137,1192.5,143.7,1190.4z"></path> <path class="st3" d="M249.9,1230.6c-0.4,11.8,16.6,47.2,19.9,47.3c3.4,0.1,22.4-34.2,22.8-46c0.4-11.8-8.9-21.6-20.7-22 C260.1,1209.6,250.2,1218.9,249.9,1230.6z"></path> <path class="st3" d="M227.7,1306.4c11.6-2.3,42.2-26.8,41.6-30.1c-0.7-3.3-38.4-14.1-49.9-11.8c-11.6,2.3-19.1,13.5-16.8,25.1 C204.9,1301.2,216.2,1308.7,227.7,1306.4z"></path> <path class="st3" d="M294.2,1260.4c-3.6,14,7.1,60.8,11,61.8c4,1,36-34.8,39.6-48.7c3.6-14-4.8-28.2-18.8-31.8 C312.1,1238,297.9,1246.4,294.2,1260.4z"></path> <path class="st3" d="M259.9,1361.6c13.8-4.3,48-37.9,46.8-41.8c-1.2-3.9-48.5-12.4-62.3-8.1c-13.8,4.3-21.5,18.9-17.3,32.7 C231.4,1358.1,246.1,1365.8,259.9,1361.6z"></path> <path class="st3" d="M332.5,1306.8c-3.6,14,7.1,60.8,11,61.8c4,1,36-34.8,39.6-48.7c3.6-14-4.8-28.2-18.8-31.8 C350.4,1284.4,336.1,1292.8,332.5,1306.8z"></path> <path class="st3" d="M298.1,1408c13.8-4.3,48-37.9,46.8-41.8c-1.2-3.9-48.5-12.4-62.3-8.1c-13.8,4.3-21.5,18.9-17.3,32.7 C269.7,1404.5,284.4,1412.2,298.1,1408z"></path> <path class="st3" d="M397.2,1358.6c-8.7,11.5-16.6,58.9-13.3,61.4c3.3,2.5,46.5-18.5,55.2-30c8.7-11.5,6.3-27.9-5.2-36.6 C422.3,1344.7,405.9,1347.1,397.2,1358.6z"></path> <path class="st3" d="M334.2,1454.5c14.2-2.5,52.4-31.6,51.7-35.6c-0.7-4.1-46.5-18.3-60.8-15.8c-14.2,2.5-23.7,16.1-21.2,30.3 C306.4,1447.5,320,1457,334.2,1454.5z"></path> <path class="st3" d="M182.3,1171.2c0.6,7.1,13,27.3,15.1,27.2c2-0.2,11.3-22,10.7-29.2c-0.6-7.1-6.8-12.4-13.9-11.9 C187,1157.8,181.7,1164,182.3,1171.2z"></path> <path class="st3" d="M174.9,1218.2c6.8-2.1,23.7-18.9,23.1-20.8c-0.6-1.9-24-6-30.8-3.9c-6.8,2.1-10.6,9.4-8.5,16.2 C160.8,1216.6,168.1,1220.4,174.9,1218.2z"></path> <path class="st3" d="M214.1,1194.8c0,10.1,15.3,40.2,18.2,40.2c2.9,0,18.5-29.9,18.6-40c0-10.1-8.1-18.4-18.3-18.5 C222.4,1176.5,214.2,1184.7,214.1,1194.8z"></path> <path class="st3" d="M199.4,1263.4c9.7-3,33.6-26.8,32.8-29.5c-0.9-2.8-34.1-8.5-43.8-5.5c-9.7,3-15.1,13.4-12,23 C179.4,1261,189.7,1266.4,199.4,1263.4z"></path> </g> <g> <path class="st2" d="M628.5,1142.2c0.1,0,0.3,0,0.4,0c1.1,0,2-0.9,2-2c-4.6-289.1-24.1-497.9-55.1-587.8c-0.7-2-1.2-3.4-1.3-4.1 c-0.2-1.1-1.3-1.8-2.4-1.6c-1.1,0.2-1.8,1.3-1.6,2.4c0.2,0.9,0.7,2.3,1.5,4.6c30.8,89.5,50.3,297.8,54.9,586.6 C626.9,1141.3,627.6,1142,628.5,1142.2z"></path> <path class="st2" d="M543.3,528.4c3.8,10.2,30.6,34.5,33.5,33.4c2.9-1.1,7.2-37,3.4-47.2c-3.8-10.2-15.1-15.4-25.3-11.6 C544.7,506.9,539.5,518.2,543.3,528.4z"></path> <path class="st2" d="M596.2,571.1c-6,9.4-9.4,46.2-6.7,47.9c2.7,1.7,34.6-16.9,40.6-26.2c6-9.4,3.2-21.8-6.1-27.8 C614.6,558.9,602.1,561.7,596.2,571.1z"></path> <path class="st2" d="M541.7,621.7c10.5,3.7,47.1-1.3,48.2-4.3c1.1-3-24.2-30-34.7-33.7c-10.5-3.7-22,1.8-25.7,12.2 C525.7,606.5,531.2,618,541.7,621.7z"></path> <path class="st2" d="M637.6,773.6c-11.7,14.6-24,75.4-19.8,78.7c4.2,3.3,60.9-21.9,72.5-36.4c11.7-14.6,9.3-35.8-5.2-47.5 C670.5,756.7,649.3,759,637.6,773.6z"></path> <path class="st2" d="M537.5,848.2c16.8,8.1,78.9,6.4,81.2,1.6c2.3-4.8-35-54.4-51.8-62.5c-16.8-8.1-37-1-45.1,15.8 C513.7,819.9,520.7,840.1,537.5,848.2z"></path> <path class="st2" d="M665.4,853.4c-17.9,14.2-48.9,83.5-44.9,88.6c4.1,5.1,78.6-9.7,96.4-24c17.9-14.2,20.8-40.3,6.6-58.1 C709.3,842.1,683.2,839.2,665.4,853.4z"></path> <path class="st2" d="M525.6,948.6c21.5,7.7,96.8-2.2,99-8.3c2.2-6.1-49.5-61.8-71-69.5c-21.5-7.7-45.2,3.4-52.9,24.9 C493,917.2,504.1,940.9,525.6,948.6z"></path> <path class="st2" d="M669.6,948.5c-17.9,14.2-48.9,83.5-44.9,88.6c4.1,5.1,78.6-9.7,96.4-24c17.9-14.2,20.8-40.3,6.6-58.1 C713.5,937.2,687.5,934.3,669.6,948.5z"></path> <path class="st2" d="M529.9,1043.7c21.5,7.7,96.8-2.2,99-8.3c2.2-6.1-49.5-61.8-71-69.5c-21.5-7.7-45.2,3.4-52.9,24.9 C497.2,1012.2,508.4,1035.9,529.9,1043.7z"></path> <path class="st2" d="M702,1075.6c-21.9,6.4-77.1,58.6-75.2,64.9c1.8,6.3,76.3,20.9,98.3,14.6c21.9-6.4,34.6-29.3,28.2-51.2 C746.9,1081.9,724,1069.3,702,1075.6z"></path> <path class="st2" d="M531.1,1136.9c20.4,10.4,96.3,10,99.3,4.2c3-5.8-41.4-67.5-61.7-77.9c-20.4-10.4-45.3-2.3-55.6,18.1 C502.6,1101.6,510.7,1126.5,531.1,1136.9z"></path> <path class="st2" d="M608.8,634c-6.1,9.5-9.5,46.9-6.8,48.7c2.7,1.7,35.2-17.1,41.3-26.7c6.1-9.5,3.3-22.2-6.2-28.2 C627.5,621.7,614.9,624.5,608.8,634z"></path> <path class="st2" d="M554.7,686.6c10.6,3.8,47.9-1.3,48.9-4.3c1.1-3-24.6-30.4-35.3-34.2c-10.6-3.8-22.3,1.8-26.1,12.4 C538.5,671.1,544,682.8,554.7,686.6z"></path> <path class="st2" d="M626.5,694.2c-9.7,12.8-18.9,65.3-15.3,68.1c3.6,2.8,51.8-20.2,61.6-32.9c9.7-12.8,7.2-31-5.5-40.7 C654.5,679,636.2,681.5,626.5,694.2z"></path> <path class="st2" d="M542.6,766.9c15.1,5.4,68-1.9,69.5-6.2c1.5-4.3-35-43.2-50.1-48.6c-15.1-5.4-31.7,2.5-37.1,17.7 C519.6,744.9,527.5,761.5,542.6,766.9z"></path> </g> <g> <path class="st4" d="M2659.6,1681.7c0,0-193.6-330.4,423.6-565.2C3083.2,1116.5,3071.2,1796.5,2659.6,1681.7z"></path> <path class="st5" d="M3083.9,1115.5l-441.2,521C2614.4,1538.7,2603.8,1298.1,3083.9,1115.5z"></path> <path class="st6" d="M2661.4,1615.6c-0.3,0-0.5-0.1-0.7-0.3c-0.5-0.4-0.5-1.1-0.1-1.6l422.6-499c0.4-0.5,1.1-0.5,1.6-0.1 c0.5,0.4,0.5,1.1,0.1,1.6l-422.6,499C2662,1615.5,2661.7,1615.6,2661.4,1615.6z"></path> <path class="st6" d="M2863.3,1377.1c-0.5,0-1-0.4-1.1-1c-0.1-0.6,0.3-1.2,1-1.2l180-24.1c0.6-0.1,1.2,0.3,1.2,1 c0.1,0.6-0.3,1.2-1,1.2l-180,24.1C2863.4,1377.1,2863.4,1377.1,2863.3,1377.1z"></path> <path class="st6" d="M2772.8,1484c-0.1,0-0.1,0-0.2,0c-0.6-0.1-1-0.7-0.9-1.3l35.6-174.7c0.1-0.6,0.7-1,1.3-0.9 c0.6,0.1,1,0.7,0.9,1.3l-35.6,174.7C2773.8,1483.6,2773.3,1484,2772.8,1484z"></path> </g> <g> <path class="st5" d="M2749.5,1684.2c0,0-44.1-272.2,431.3-269.5C3180.8,1414.7,2996,1868.2,2749.5,1684.2z"></path> <path class="st4" d="M3180.8,1414.7l-431.3,269.5C2749.5,1684.2,2957.3,1895.6,3180.8,1414.7z"></path> <path class="st5" d="M3083.5,1532.9c-0.1,0-0.1,0-0.2,0l-116.7,12.3c-0.9,0.1-1.7-0.5-1.8-1.4c-0.1-0.9,0.6-1.7,1.4-1.8 l116.7-12.3c0.9-0.1,1.7,0.5,1.8,1.4C3084.8,1531.9,3084.2,1532.7,3083.5,1532.9z"></path> <path class="st5" d="M2951.3,1656.3c-0.1,0-0.2,0-0.4,0l-155.3,0.7c-0.9,0-1.6-0.7-1.6-1.6c0-0.9,0.7-1.6,1.6-1.6l155.3-0.7 c0.9,0,1.6,0.7,1.6,1.6C2952.5,1655.4,2952,1656.1,2951.3,1656.3z"></path> </g> <g> <path class="st7" d="M644.9,1710.4c0,0,322.3-286.2-256.4-752.5C388.5,958,164.4,1689.8,644.9,1710.4z"></path> <path class="st5" d="M388,956.6l290.6,711.3C743.1,1573.1,838.3,1319.4,388,956.6z"></path> <path class="st6" d="M666.4,1638.9c-0.4,0-0.9-0.3-1-0.7L387,957c-0.2-0.6,0-1.2,0.6-1.5c0.6-0.2,1.2,0,1.5,0.6l278.3,681.3 c0.2,0.6,0,1.2-0.6,1.5C666.7,1638.9,666.5,1638.9,666.4,1638.9z"></path> <path class="st6" d="M533.3,1313.3c-0.2,0-0.3,0-0.5-0.1l-184.3-88.5c-0.6-0.3-0.8-0.9-0.5-1.5c0.3-0.6,0.9-0.8,1.5-0.5 l184.3,88.5c0.6,0.3,0.8,0.9,0.5,1.5C534.1,1313.1,533.7,1313.3,533.3,1313.3z"></path> <path class="st6" d="M593,1459.3c0,0-0.1,0-0.1,0c-0.6-0.1-1-0.6-1-1.2l22.8-199.4c0.1-0.6,0.6-1.1,1.2-1c0.6,0.1,1,0.6,1,1.2 l-22.8,199.4C594,1458.8,593.5,1459.3,593,1459.3z"></path> </g> <g> <path class="st8" d="M599.9,1705.3c0,0,93.4-296-436.5-370.3C163.4,1335.1,295.4,1870.2,599.9,1705.3z"></path> <path class="st4" d="M163.4,1335.1l436.5,370.3C599.9,1705.3,334,1907,163.4,1335.1z"></path> <path class="st8" d="M252.6,1482.5c0.1,0,0.1,0.1,0.2,0.1l128,32.7c1,0.2,2-0.3,2.2-1.3c0.2-1-0.4-1.9-1.3-2.2l-128-32.7 c-1-0.2-2,0.3-2.2,1.3C251.3,1481.2,251.7,1482.1,252.6,1482.5z"></path> <path class="st8" d="M379.7,1641.4c0.1,0,0.3,0.1,0.4,0.1l172.8,26c1,0.1,1.9-0.5,2.1-1.5c0.1-1-0.5-1.9-1.5-2.1l-172.8-26 c-1-0.1-1.9,0.5-2.1,1.5C378.5,1640.3,378.9,1641.1,379.7,1641.4z"></path> </g> <ellipse class="st2" cx="1640.2" cy="1739.2" rx="1308.4" ry="98.9"></ellipse> <g> <path class="st9" d="M1655.7,1482.5c0,0-14.9,191.6,5.4,212c20.4,20.4,50.3,39.4,53,51.6c2.7,12.2-88.3-1.4-96.5-13.6 c-8.2-12.2-6.8-32.6-14.9-89.7s-20.4-160.3-20.4-160.3H1655.7z"></path> <path class="st3" d="M1714.1,1746.1c-1.9-8.3-16.3-19.8-31.7-32.7c-3.4,26.2-54.8-0.7-72.4-10.7c1.8,14.8,3.4,23.4,7.7,29.8 C1625.8,1744.8,1716.8,1758.3,1714.1,1746.1z"></path> <path class="st9" d="M1552.4,1482.5c0,0-14.9,191.6,5.4,212c20.4,20.4,50.3,39.4,53,51.6c2.7,12.2-88.3-1.4-96.5-13.6 c-8.2-12.2-6.8-32.6-14.9-89.7s-20.4-160.3-20.4-160.3H1552.4z"></path> <path class="st3" d="M1610.8,1746.1c-1.9-8.3-16.3-19.8-31.7-32.7c-3.4,26.2-54.8-0.7-72.4-10.7c1.8,14.8,3.4,23.4,7.7,29.8 C1522.5,1744.8,1613.5,1758.3,1610.8,1746.1z"></path> <g> <rect x="1252.3" y="1222.6" class="st6" width="22.2" height="103.9"></rect> <path class="st10" d="M1436.4,1390.9h-252c-10.8,0-19.6-8.8-19.6-19.6v-47.9c0-10.8,8.8-19.6,19.6-19.6h252 c10.8,0,19.6,8.8,19.6,19.6v47.9C1456,1382.1,1447.2,1390.9,1436.4,1390.9z"></path> <path class="st10" d="M1340.5,1241.8h-174.4c-14.3,0-25.9-11.6-25.9-25.9v-174.4c0-14.3,11.6-25.9,25.9-25.9h174.4 c14.3,0,25.9,11.6,25.9,25.9V1216C1366.3,1230.2,1354.7,1241.8,1340.5,1241.8z"></path> <rect x="1305.2" y="1390.9" class="st6" width="22.2" height="314.4"></rect> <path class="st6" d="M1427.2,1711.9H1206c-3.7,0-6.7-3-6.7-6.7c0-3.7,3-6.7,6.7-6.7h221.2c3.7,0,6.7,3,6.7,6.7 C1433.9,1709,1430.9,1711.9,1427.2,1711.9z"></path> <path class="st6" d="M1393.9,1725.8c0-9,7.3-16.3,16.3-16.3c9,0,16.3,7.3,16.3,16.3c0,9-7.3,16.3-16.3,16.3 C1401.2,1742.1,1393.9,1734.8,1393.9,1725.8z"></path> <path class="st6" d="M1210.8,1725.8c0-9,7.3-16.3,16.3-16.3c9,0,16.3,7.3,16.3,16.3c0,9-7.3,16.3-16.3,16.3 C1218.1,1742.1,1210.8,1734.8,1210.8,1725.8z"></path> <path class="st6" d="M1300.1,1725.8c0-9,7.3-16.3,16.3-16.3s16.3,7.3,16.3,16.3c0,9-7.3,16.3-16.3,16.3 S1300.1,1734.8,1300.1,1725.8z"></path> </g> <path class="st6" d="M1281.4,1222.6c0,0-9.2,95,29,117.5c38.3,22.4,149.9,50.2,155.7,69.4c5.9,19.2,8.6,134,8.6,134 s95,27.2,202.9-14.4c0,0,0-181.8-31-208.2c-65-55.5-160.2-87.6-160.2-87.6L1281.4,1222.6z"></path> <path class="st9" d="M1648.2,1057.1c0,0,0.3-26.9,2.6-36.6c2.3-9.7-2.7-20.8,3-21.4c5.7-0.7,9.1,18.2,9.1,18.2 s13.1-15.5,16.4-20.8c3.3-5.4,11.7-13.5,15.8-11.4c4.1,2.1-13.6,26.8-13.6,26.8s16.9-19.3,21.1-18.2c4.2,1.1-13.7,28.9-13.7,28.9 s17-21.5,19.8-22c2.8-0.5,3.6,3.1-0.6,12.1c-4.2,9.1-10.8,17.3-10.8,17.3s13.1-14.2,15.3-15.4c2.2-1.2,6-1.2-1.6,11.6 c-7.6,12.8-28.6,37.7-44.2,45.9L1648.2,1057.1z"></path> <path class="st9" d="M1387.8,1279.3c0,0,23.9,12.3,31.6,18.7c7.7,6.4,19.8,6.8,17.8,12.3c-2,5.4-20.4,0-20.4,0s8,18.6,11.3,24 c3.3,5.4,6.8,16.4,3.1,19.2c-3.7,2.7-17.9-24.1-17.9-24.1s9.7,23.8,6.8,27c-2.9,3.3-19.7-25.2-19.7-25.2s11.6,24.8,10.8,27.6 c-0.8,2.7-4.3,1.8-10.6-6c-6.2-7.8-10.6-17.4-10.6-17.4s6.8,18.1,6.9,20.5c0.1,2.5-1.6,5.9-9.7-6.6c-8-12.5-21-42.5-21.3-60 L1387.8,1279.3z"></path> <path class="st11" d="M1376.3,896.9c0,0-89.2,25.6-112.9,54.5c-23.7,28.8-52.6,173.3-44.5,211.6c8,38.3,141,147.2,141,147.2 l43.3-35.6l-17.6-32.8c0,0,74.2,17,121.2,0l-2.1-89.4c0,0,20.3,40.3,65.1,40.3s107.9-120.6,107.9-120.6l-33.1-25.7 c0,0-44.4,43.2-74.3,51.3c-6.4,1.7-13-1.9-14.7-8.3c-8.3-31.1-36.3-130.7-60.6-154.1C1466.1,907.6,1376.3,896.9,1376.3,896.9z"></path> <path class="st6" d="M1504.6,1153c-0.3,0-0.5-0.2-0.6-0.5l-2.1-63.3c0-0.1,0-0.2,0.1-0.3c0.1-0.2,11.1-20.4,11.1-40.3 c0-19.8-22-42.1-22.3-42.3c-0.2-0.2-0.2-0.6,0-0.8c0.2-0.2,0.6-0.2,0.8,0c0.2,0.2,22.6,22.8,22.6,43.1c0,19.3-10.2,38.9-11.2,40.7 l2.1,63.2C1505.1,1152.7,1504.9,1153,1504.6,1153C1504.6,1153,1504.6,1153,1504.6,1153z"></path> <path class="st6" d="M1385.5,1242.4c-0.2,0-0.3-0.1-0.5-0.2l-64.7-91.9c-2.9-4.2-4.3-9.2-3.8-14.3l10-112.5c0-0.3,0.3-0.5,0.6-0.5 c0.3,0,0.5,0.3,0.5,0.6l-10,112.5c-0.4,4.8,0.9,9.6,3.6,13.6l64.7,91.9c0.2,0.3,0.1,0.6-0.1,0.8 C1385.7,1242.3,1385.6,1242.4,1385.5,1242.4z"></path> <path class="st3" d="M1423.7,837.8c2.4-0.5,47.4-25.1,29-83.6c-18.4-58.6-72.2-53-98.3-43.4c-26.1,9.5-64,58.9-35.4,100.6 c28.6,41.7,55.7,53.9,55.7,53.9L1423.7,837.8z"></path> <g> <path class="st12" d="M1450.3,800.7c0,0,4.7-7.6,8.7-4.7c10.2,7.4-0.3,18-6.8,20.4L1450.3,800.7z"></path> <path class="st9" d="M1384.8,712.1c-30.4,2.9-54.2,28.6-54.8,59.1c-0.2,10,2,19.5,6.1,27.9c9,20.9,16.5,37.7,25.5,49.9 c9.1,12.3,13.6,27.5,11.9,42.7l-1.7,15.4c35.9,16.6,50.9,1.3,50.9,1.3l-1.2-38.3l0,0c38.1-5.8,30.8-76.2,30.1-97l-0.1,0 c0-0.8,0-1.6,0-2.4C1450.5,735.8,1420.2,708.7,1384.8,712.1z"></path> <path class="st3" d="M1382.4,774.1c-7.2,7.8-13.4,16.5-19.6,25.1c-6.6,9.1-13.3,18.8-14.5,30c-10.1-7.2-16.8-18.2-22.4-29.2 c-2.6-5.1-5.1-10.4-6.1-16c-1.4-8,0.3-16.2,2-24.2c2.2-10.3,4.6-21,11.3-29.1c4.4-5.4,10.4-9.2,16.7-12.3 c14.5-7.3,30.9-11.2,47.1-9.5c16.1,1.7,31.9,9.4,41.9,22.2c12.9,16.5,14.9,38.7,16.5,59.5c-2.4-8.6-8.3-15.7-14.1-22.5 c-3.8-4.4-7.6-8.9-12.6-11.8c-8.5-5-10.8-3.8-25.8-13.3C1399.2,756.2,1391.4,764.4,1382.4,774.1z"></path> <path class="st6" d="M1442.6,801c0.2-2.9-2-5.5-4.9-5.6c-2.9-0.2-5.5,2-5.6,4.9c-0.2,2.9,2,5.5,4.9,5.6 C1439.9,806.2,1442.4,804,1442.6,801z"></path> <path class="st6" d="M1390.4,808.7c0.2-2.9-2-5.5-4.9-5.6c-2.9-0.2-5.5,2-5.6,4.9s2,5.5,4.9,5.6 C1387.6,813.9,1390.2,811.7,1390.4,808.7z"></path> <path class="st12" d="M1433.5,835.6c0,0-7.4-3.9-10.1-2.9c-2.6,1-3.8,4.4-3.8,4.4s-1.9-3.1-5.2-2.9c-3.3,0.2-13.7,7.4-13.7,7.4 s11.5,13.1,21.3,10.4C1431.9,849.3,1433.5,835.6,1433.5,835.6L1433.5,835.6z"></path> <path class="st3" d="M1374.3,803.7c-0.6,0-1.3-0.2-1.7-0.7c-0.8-0.9-0.7-2.3,0.2-3.1c0.3-0.2,6.9-5.9,16.7-5.8 c1.2,0,2.2,1,2.2,2.2c0,1.2-1.1,2.2-2.2,2.2c-8.2-0.1-13.7,4.6-13.7,4.7C1375.2,803.5,1374.8,803.7,1374.3,803.7z"></path> <path class="st3" d="M1427.6,793.7c-0.6-0.2-1.2-0.6-1.4-1.2c-0.5-1.1-0.1-2.4,1-2.9c0.3-0.2,8.1-3.8,17.7-0.9 c1.2,0.4,1.8,1.6,1.5,2.8c-0.4,1.2-1.6,1.8-2.8,1.5c-7.9-2.4-14.4,0.6-14.5,0.7C1428.6,793.8,1428.1,793.8,1427.6,793.7z"></path> <path class="st12" d="M1414.9,828.2c6.2-1.1,8.2-5.9,8.3-8.6c0-0.5-0.1-0.9-0.5-1.3c-5.8-6.7-5.6-16.8-5.6-16.9 c0-1-0.8-1.9-1.8-1.9c-1,0-1.9,0.8-1.9,1.8c0,0.5-0.3,11,5.9,18.8c-0.3,1.5-1.7,4.8-7.7,4.7c-1,0-1.9,0.8-1.9,1.8 s0.8,1.9,1.8,1.9C1412.8,828.5,1413.9,828.4,1414.9,828.2z"></path> <path class="st13" d="M1400.6,841.6c0,0,20.1-2.6,32.8-6c0,0-5.1,10.7-12.8,11.5C1413,847.8,1400.6,841.6,1400.6,841.6z"></path> <path class="st6" d="M1384.8,826.9c-3.4,0-6.8-1-9.7-2.9c-4.1-2.6-6.9-6.6-7.9-11.4c-2.2-9.8,4-19.5,13.8-21.6 c9.8-2.1,19.5,4,21.6,13.8l0,0c1,4.7,0.2,9.6-2.4,13.7c-2.6,4.1-6.6,6.9-11.4,7.9C1387.4,826.8,1386.1,826.9,1384.8,826.9z M1384.8,791.7c-1.2,0-2.4,0.1-3.7,0.4c-9.2,2-15,11.1-13,20.3c1,4.4,3.6,8.2,7.5,10.7c3.8,2.4,8.4,3.3,12.8,2.3 c4.4-1,8.2-3.6,10.7-7.5c2.4-3.8,3.3-8.4,2.3-12.8l0,0C1399.7,797.2,1392.7,791.7,1384.8,791.7z"></path> <path class="st6" d="M1437.1,817.8c-3.4,0-6.8-1-9.7-2.9c-4.1-2.6-6.9-6.6-7.9-11.4c-2.2-9.8,4-19.5,13.8-21.6 c4.7-1,9.6-0.2,13.7,2.4c4.1,2.6,6.9,6.6,7.9,11.4l0,0c1,4.7,0.2,9.6-2.4,13.7c-2.6,4.1-6.6,6.9-11.4,7.9 C1439.7,817.6,1438.4,817.8,1437.1,817.8z M1437.1,782.6c-1.2,0-2.5,0.1-3.7,0.4c-9.2,2-15,11.1-13,20.3c2,9.2,11.1,15,20.3,13 c4.4-1,8.2-3.6,10.7-7.5c2.4-3.8,3.3-8.4,2.3-12.8l0,0c-1-4.4-3.6-8.2-7.5-10.7C1443.5,783.5,1440.3,782.6,1437.1,782.6z"></path> <polygon class="st6" points="1345.4,813.5 1345.3,812.4 1367.2,810.1 1367.3,811.2 "></polygon> <path class="st6" d="M1402.7,807.7l-0.7-0.8c9.5-8.5,18.3-3.5,18.4-3.4l-0.6,1C1419.4,804.2,1411.6,799.8,1402.7,807.7z"></path> <path class="st9" d="M1355.1,815.6c-1-1.9-2.8-3.4-4.9-4.1c-4.2-1.6-11.7-3.2-16.6,2.1c-7.2,7.7,8.4,27,22.9,16.7 C1356.6,830.3,1360.7,825.9,1355.1,815.6z"></path> </g> <path class="st3" d="M1359.5,717.1c-4.4-20.1-24.3-32.8-44.5-28.4c-20.1,4.4-32.8,24.3-28.4,44.5c4.4,20.1,24.3,32.8,44.5,28.4 C1351.2,757.2,1364,737.3,1359.5,717.1z"></path> </g> <g> <path class="st6" d="M1950.5,784c0.5,16.8,20.7,30.8,15.1,46.7c-1.2,3.5-3.7,6.6-4.7,10.2c-2.2,7.9,3.7,16.4,11.4,19.3 c7.7,2.9,16.4,1.3,24-1.9c7.6-3.2,14.5-7.8,21.9-11.2c16.7-7.6,35.6-8.8,53.6-12.3c18.3-3.6,36.5-9.8,55.1-8.5 c21.5,1.5,40.8,12.7,60.9,20.4c20.5,7.8,42.3,12.1,64.3,12.5c11.4,0.2,23.3-0.7,33.4-6c20.3-10.6,28.1-36.9,20-57.6 c-4.6-11.8-13.8-21.5-24.9-27.7c-9.8-5.5-22.4-7.3-29.8-16.5c-10.4-12.9-4-32.1-8.1-48.1c-3.5-13.5-14.8-24.6-27.3-29.9 c-11.7-5-26.3-5.7-35.1-16c-9.6-11.2-6.4-26.7-8.1-40.2c-2.5-19.2-15.2-36.3-31.7-46.5c-4.9-3.1-10.2-5.6-15.8-7.7 c-36.9-13.6-85.1-4.2-98.1,38c-4,12.9-3.7,27.4-10.8,39c-7.7,12.5-23.2,20-27.4,34c-5.4,17.7,9.8,36.7,4.8,54.5 c-3.3,11.6-14.1,19.2-23.7,26.5C1960,762.2,1950.2,771.9,1950.5,784z"></path> <path class="st9" d="M2151.7,1660.7c0,0-1.2,88.8-10.5,98.5c-5.3,5.5-111.2,17.2-114.2,3c-3-14.2,77.6-33.6,83.6-59.7 c6-26.1,3-50.7,3-50.7L2151.7,1660.7z"></path> <path class="st9" d="M1865.2,1637.8c0,0-21.3,46.9-25.6,55.4c-4.3,8.5-8.5,38.3-17,39.4c-8.5,1.1-100.1,10.6-102.2-4.3 c-2.1-14.9,80.9-39.4,86.3-51.1c5.3-11.7,25.6-60.7,25.6-60.7L1865.2,1637.8z"></path> <path class="st5" d="M2174.8,1024.4c0,0,59.7,99.8,65,151.5c5.3,51.7-33,245-32.5,257.5c0.4,12.5,5.4,41,0.3,60.6 c-5.2,19.6-37.2,78.4-32.8,94.4c4.5,16-8,92.7-8,92.7h-69.5c0,0,8.9-90.9,0-130.1c-8.9-39.2-8.9-103.3-8.9-130.1 c0-26.7,0-199.6,0-199.6s-42.8,82-44.5,92.7c-1.8,10.7-3.6,19.6-17.8,57c-14.3,37.4-46.3,67.7-51.7,83.7c-5.3,16-7.1,32.1-16,48.1 c-8.9,16-30.3,23.2-39.2,62.4s-44.5,94.4-44.5,94.4l-76.6-26.7c0,0,57-147.9,57-153.2c0-5.3,26.7-33.9,26.7-85.5 c0-51.7,32.1-121.2,41-133.6c8.9-12.5,90.9-234.3,123.8-249.5C2079.5,995.9,2174.8,1024.4,2174.8,1024.4z"></path> <path class="st13" d="M2137.8,750.5c36.1,1.3,92.2,17.4,124.3,70.8c32.1,53.5,46.8,102.9,46.8,102.9l-77.5,28.1l-8-30.7 c0,0-20,97.6-40.1,105.6c-20,8-33.4-6.7-45.4-8c-12-1.3-50.8,10.7-82.9,1.3c-32.1-9.4-33.4-33.4-37.4-61.5 c-4-28.1-9.4-53.5-9.4-53.5l-12,9.4l-62-62c0,0,72.7-74.4,112.7-86.4C2087,754.5,2137.8,750.5,2137.8,750.5z"></path> <path class="st9" d="M2293.2,929.9c0,0,5.3,83,0,123.1c-5.3,40.1-48,126.5-48,126.5l-25.8-26.7c0,0,42.9-119.6,21-203.7 L2293.2,929.9z"></path> <path class="st12" d="M2034.7,660.6c0,0-6-6.6-9.4-3c-8.7,9.1,3.5,17.7,10.4,18.9L2034.7,660.6z"></path> <path class="st9" d="M2083,561.8c30.4-2.6,58.4,18.3,64.6,48.2c2,9.8,1.6,19.5-0.9,28.5c-5.1,22.2-9.4,40.1-16.1,53.6 c-6.7,13.8-8.4,29.4-4,44.1l4.5,14.8c-32.3,22.8-50.2,7.6-50.2,7.6l-5.3-35l0,0c-38.5,1.2-44-69.3-47.2-89.9l0.1,0 c-0.1-0.8-0.3-1.5-0.4-2.3C2022.8,597,2047.7,564.8,2083,561.8z"></path> <path class="st6" d="M2096.6,622.3c8.5,6.4,16.2,13.8,23.8,21.1c8.1,7.8,16.5,16.1,19.7,26.9c8.6-8.9,13.2-20.9,16.8-32.7 c1.7-5.5,3.2-11.1,3.1-16.9c-0.1-8.1-3.2-15.9-6.4-23.4c-4-9.7-8.3-19.8-16.4-26.5c-5.3-4.5-11.9-7.1-18.6-9.1 c-15.6-4.5-32.4-5.4-48-0.8c-15.5,4.6-29.6,15-37.1,29.4c-9.7,18.5-7.7,40.7-5.5,61.5c0.8-8.9,5.3-16.9,9.8-24.6 c2.9-5,5.9-10.1,10.3-13.9c7.5-6.5,10-5.7,23-17.7C2076.8,607.7,2086,614.3,2096.6,622.3z"></path> <path class="st9" d="M2130.9,658.1c0.7-2.1,2.1-3.8,4-4.9c3.9-2.3,10.9-5.2,16.7-1c8.5,6.3-3.4,28.1-19.5,20.6 C2132.1,672.8,2127.3,669.2,2130.9,658.1z"></path> <path class="st6" d="M2044.7,659.7c-0.7-2.8,1-5.7,3.8-6.4s5.7,1,6.4,3.8c0.7,2.8-1,5.7-3.8,6.4 C2048.3,664.3,2045.4,662.5,2044.7,659.7z"></path> <path class="st6" d="M2095,657.7c-0.7-2.8,1-5.7,3.8-6.4s5.7,1,6.4,3.8c0.7,2.8-1,5.7-3.8,6.4 C2098.6,662.3,2095.7,660.6,2095,657.7z"></path> <path class="st12" d="M2061.9,695.9c0,0,4.2-3.7,6.9-3.2c2.8,0.5,4.6,3.6,4.6,3.6s1.3-3.4,4.6-3.8c3.3-0.4,12.7,1.3,12.7,1.3 s-7.2,14.8-17.2,13.3c-10-1.5-11.4-10.7-11.4-10.7L2061.9,695.9z"></path> <path class="st14" d="M2071.6,700.7c11.5,1.3,21.6-8,21.7-8.2c0.3-0.3,0.3-0.8,0-1.1c-0.3-0.3-0.8-0.3-1.1,0 c-0.7,0.6-16.5,15.2-30.5,3.3c-0.3-0.3-0.8-0.2-1.1,0.1c-0.3,0.3-0.2,0.8,0.1,1.1C2064.4,698.9,2068.1,700.3,2071.6,700.7z"></path> <path class="st6" d="M2111.1,647.6c0.6-0.1,1.2-0.5,1.5-1.1c0.6-1.1,0.2-2.4-0.9-3c-0.3-0.2-8-4.2-17.6-1.7 c-1.2,0.3-1.9,1.5-1.6,2.7c0.3,1.2,1.6,1.9,2.7,1.6c8-2,14.4,1.3,14.5,1.4C2110.1,647.6,2110.6,647.7,2111.1,647.6z"></path> <path class="st6" d="M2056.4,646.6c0.6-0.2,1.1-0.7,1.3-1.4c0.4-1.2-0.3-2.4-1.4-2.8c-0.3-0.1-8.6-2.7-17.6,1.4 c-1.1,0.5-1.6,1.8-1.1,2.9c0.5,1.1,1.9,1.6,2.9,1.1c7.5-3.4,14.4-1.3,14.5-1.3C2055.4,646.8,2055.9,646.8,2056.4,646.6z"></path> <path class="st12" d="M2074.5,681.3c-6.3,0-9.1-4.3-9.7-7c-0.1-0.5,0-0.9,0.2-1.4c4.5-7.6,2.5-17.5,2.4-17.6c-0.2-1,0.4-2,1.4-2.2 c1-0.2,2,0.4,2.2,1.4c0.1,0.4,2.3,10.8-2.4,19.5c0.6,1.4,2.6,4.4,8.4,3.2c1-0.2,2,0.4,2.2,1.5c0.2,1-0.4,2-1.4,2.2 C2076.6,681.2,2075.5,681.3,2074.5,681.3z"></path> <path class="st15" d="M2008.2,906c-0.2,0-0.4-0.2-0.5-0.4c-2.4-26.6,18.1-64,18.3-64.4c0.1-0.2,0.4-0.3,0.6-0.2 c0.2,0.1,0.3,0.4,0.2,0.6c-0.2,0.4-20.6,37.6-18.2,63.9C2008.7,905.7,2008.5,905.9,2008.2,906C2008.2,906,2008.2,906,2008.2,906z"></path> <path class="st15" d="M2155.6,923.6c-22.6,0-41.8-13.1-42-13.2c-0.2-0.1-0.3-0.4-0.1-0.6c0.1-0.2,0.4-0.3,0.6-0.1 c0.4,0.3,36.7,25,68.1,5.8c0.2-0.1,0.5-0.1,0.6,0.2c0.1,0.2,0.1,0.5-0.2,0.6C2173.7,921.6,2164.4,923.6,2155.6,923.6z"></path> <path class="st16" d="M2148.5,1724.9c-54.2,27.6-72.2,18.2-78.2,9.4c-22.2,10.9-44.9,20.1-43.3,27.7c3,14.2,108.8,2.6,114.2-3 C2144.6,1755.6,2147,1741.4,2148.5,1724.9z"></path> <path class="st16" d="M1761.3,1701.3c-21.4,9.5-42,19.5-40.9,27c2.1,14.9,93.7,5.3,102.2,4.3c7.7-1,12-25.6,15.9-36.5 C1793,1721.5,1770.1,1708.8,1761.3,1701.3z"></path> <path class="st9" d="M2226.2,1147.5c0,0-24.3,16.2-31.7,24c-7.5,7.8-20.5,9.8-17.7,15.4c2.8,5.6,21.9-2.5,21.9-2.5 s-6.3,21-9.2,27.2c-2.9,6.2-5.3,18.5-1,21c4.3,2.5,16.3-28.1,16.3-28.1s-7.5,26.8-4,29.9s18.1-29.5,18.1-29.5s-9.4,28.2-8.2,31 s4.9,1.4,10.6-7.7c5.8-9.2,9.3-20,9.3-20s-5.1,20.3-4.9,22.9s2.5,6.1,9.6-8.3c7.1-14.5,17.3-48.3,15.6-67.2L2226.2,1147.5z"></path> <path class="st9" d="M1789.1,830.6c0,0-6.8-28.4-11.5-38.1c-4.7-9.7-2.1-22.6-8.3-21.9c-6.2,0.7-5.3,21.4-5.3,21.4 s-17.5-13.2-22.3-18.1c-4.8-4.9-15.5-11.4-19.4-8.2c-3.8,3.2,20.7,25.1,20.7,25.1s-22.5-16.4-26.7-14.2 c-4.2,2.2,21.4,27.2,21.4,27.2s-23.1-18.6-26.2-18.5c-3.1,0.1-3.1,4.1,3.5,12.7c6.6,8.6,15.5,15.7,15.5,15.7s-17.2-11.9-19.8-12.6 c-2.6-0.7-6.6,0.2,4.5,11.9c11.1,11.7,39.2,33,57.6,38L1789.1,830.6z"></path> <path class="st9" d="M1983.6,902.3c0,0-58.6,70.2-106.4,62.5c-47.8-7.7-112.7-123.9-112.7-123.9l23.1-14.1c0,0,72,78.7,97.1,73.7 c25.1-5,60.7-36.4,60.7-36.4L1983.6,902.3z"></path> </g> <g> <rect x="2678.7" y="1222.6" class="st6" width="22.2" height="103.9"></rect> <path class="st10" d="M2516.9,1390.9h252c10.8,0,19.6-8.8,19.6-19.6v-47.9c0-10.8-8.8-19.6-19.6-19.6h-252 c-10.8,0-19.6,8.8-19.6,19.6v47.9C2497.3,1382.1,2506.1,1390.9,2516.9,1390.9z"></path> <path class="st10" d="M2612.8,1241.8h174.4c14.3,0,25.9-11.6,25.9-25.9v-174.4c0-14.3-11.6-25.9-25.9-25.9h-174.4 c-14.3,0-25.9,11.6-25.9,25.9V1216C2587,1230.2,2598.5,1241.8,2612.8,1241.8z"></path> <rect x="2625.8" y="1390.9" class="st6" width="22.2" height="314.4"></rect> <path class="st6" d="M2747.3,1711.9h-221.2c-3.7,0-6.7-3-6.7-6.7c0-3.7,3-6.7,6.7-6.7h221.2c3.7,0,6.7,3,6.7,6.7 C2754,1709,2751,1711.9,2747.3,1711.9z"></path> <path class="st6" d="M2559.3,1725.8c0-9-7.3-16.3-16.3-16.3c-9,0-16.3,7.3-16.3,16.3c0,9,7.3,16.3,16.3,16.3 C2552.1,1742.1,2559.3,1734.8,2559.3,1725.8z"></path> <path class="st6" d="M2742.5,1725.8c0-9-7.3-16.3-16.3-16.3c-9,0-16.3,7.3-16.3,16.3c0,9,7.3,16.3,16.3,16.3 C2735.2,1742.1,2742.5,1734.8,2742.5,1725.8z"></path> <path class="st6" d="M2653.2,1725.8c0-9-7.3-16.3-16.3-16.3c-9,0-16.3,7.3-16.3,16.3c0,9,7.3,16.3,16.3,16.3 C2645.9,1742.1,2653.2,1734.8,2653.2,1725.8z"></path> </g> <g> <path class="st9" d="M2387.5,1000.7c0,0-0.3-26.9-2.6-36.6c-2.3-9.7,2.7-20.8-3-21.4c-5.7-0.7-9.1,18.2-9.1,18.2 s-13.1-15.5-16.4-20.8c-3.3-5.4-11.7-13.5-15.8-11.4c-4.1,2.1,13.6,26.8,13.6,26.8s-16.9-19.3-21.1-18.2 c-4.2,1.1,13.7,28.9,13.7,28.9s-17-21.5-19.8-22c-2.8-0.5-3.6,3.1,0.6,12.1c4.2,9.1,10.8,17.3,10.8,17.3s-13.1-14.2-15.3-15.4 c-2.2-1.2-6-1.2,1.6,11.6c7.6,12.8,28.6,37.7,44.2,45.9L2387.5,1000.7z"></path> <path class="st9" d="M2404.3,1649.9c0,0-4.2,56.5-4.7,57.2c-0.4,0.8,4,7.7,4,7.7l17.5,3.1l15.9-7.3c0,0,8.6-55.1,10.3-63.2 C2449,1639.4,2404.3,1649.9,2404.3,1649.9z"></path> <path class="st3" d="M2437,1710.7c0,0-20.1,7-37.3-4.6c0,0-67,25.1-64.9,44.2c0,0-2.9,5.7,26.2,4.5c29-1.2,74.1-2.5,75.3-3.2 S2443.2,1753.9,2437,1710.7z"></path> <path class="st9" d="M2543.4,1645.5c0,0,0.8,55.3,0.4,56.1c-0.4,0.8,4,7.7,4,7.7l17.5,3.1l15.9-7.3c0,0-1.4-51.4,0.3-59.6 S2543.4,1645.5,2543.4,1645.5z"></path> <path class="st3" d="M2581.2,1705.1c0,0-20.1,7-37.3-4.6c0,0-67,25.1-64.9,44.2c0,0-2.9,5.7,26.2,4.5c29-1.2,74.1-2.5,75.3-3.2 S2587.4,1748.4,2581.2,1705.1z"></path> <g> <path class="st12" d="M2607.2,766.4c0,0-4.2-7.9-8.4-5.2c-10.6,6.8-1.6,17.6,4.8,20.4L2607.2,766.4z"></path> <path class="st9" d="M2607.5,738.7L2607.5,738.7c0.1-0.8,0.1-1.5,0.2-2.3c3.2-34.8,35.1-60.1,70.2-54.6 c29.2,4.6,51.2,30.2,51.2,59.8c0,11-2.8,21.2-7.8,30c-6.9,13.7-12.9,25.3-19.1,34.9c-10.2,15.9-14.7,34.7-13.2,53.5l1.1,14.8 c-39,16.4-54.3-3.6-54.3-3.6l1.8-26.8c0.2-3.5-2.3-6.6-5.7-7.1c0,0,0,0-0.1,0C2585.9,830.2,2605.6,759.5,2607.5,738.7z"></path> <path class="st6" d="M2667,776.2c0.3-3.1,3-5.4,6.2-5.1c3.1,0.3,5.4,3,5.1,6.2c-0.3,3.1-3,5.4-6.2,5.1 C2669,782.1,2666.7,779.3,2667,776.2z"></path> <path class="st6" d="M2617.8,761.6c0.3-3.1,3-5.4,6.2-5.1c3.1,0.3,5.4,3,5.1,6.2c-0.3,3.1-3,5.4-6.2,5.1 C2619.8,767.5,2617.5,764.7,2617.8,761.6z"></path> <path class="st6" d="M2688,769.3c0.6,0.1,1.2,0,1.7-0.3c1.7-0.8,2.3-2.8,1.5-4.4c-2.4-5-10.4-13-23.6-7.9 c-1.7,0.7-2.5,2.6-1.9,4.3c0.7,1.7,2.6,2.5,4.3,1.9c10.8-4.2,15.1,4.2,15.2,4.6C2685.8,768.5,2686.9,769.2,2688,769.3z"></path> <path class="st6" d="M2635.9,755.6c0.6,0.1,1.2,0,1.7-0.3c1.6-0.8,2.3-2.8,1.5-4.4c-2.4-5-10.4-13-23.6-7.9 c-1.7,0.7-2.5,2.6-1.9,4.3c0.7,1.7,2.6,2.5,4.3,1.9c10.8-4.2,15.1,4.2,15.2,4.6C2633.8,754.9,2634.8,755.5,2635.9,755.6z"></path> <polygon class="st6" points="2733.9,752.1 2713.7,791.6 2702.9,788.4 2701.1,734.9 "></polygon> <path class="st9" d="M2701.3,786.9c1.2-1.9,3-3.2,5.1-3.8c4.3-1.3,11.9-2.5,16.5,3.1c6.8,8.1-10,26.5-23.9,15.3 C2699,801.5,2695.2,796.9,2701.3,786.9z"></path> <path class="st12" d="M2636.1,794c5.2,3.1,10.3,0.7,10.3,0.6c0.5-0.2,0.7-0.8,0.4-1.3c-0.2-0.5-0.8-0.7-1.3-0.4 c-0.2,0.1-5.9,2.8-10.8-2.6c-0.8-0.9-1.2-1.6-1.2-2c0-0.7,0.9-1.5,2.1-2.6c2.8-2.5,7.5-6.8,9.8-17.1c0.1-0.5-0.2-1.1-0.7-1.2 s-1.1,0.2-1.2,0.7c-2.2,9.7-6.4,13.5-9.2,16.1c-1.5,1.4-2.7,2.4-2.8,3.9c-0.1,1.1,0.5,2.1,1.7,3.5 C2634.2,792.7,2635.2,793.4,2636.1,794z"></path> <path class="st6" d="M2619.4,716.1c0,0-9.3,5.3-14.8,41.9c0,0,0.8-41.3,5.7-45.4C2615.3,708.5,2619.4,716.1,2619.4,716.1z"></path> </g> <path class="st17" d="M2794.4,1194.8l-198.6-57.6l-72.8,55.6l4,68.1l-0.3,0l-81.4,66.8c-18.7,15.4-30.5,37.6-32.6,61.7 l-25.5,283.4h69.7l74.5-282.1V1673h62.4l45.7-258.6l103.4-69.9c33.9-22.9,53.7-61.4,52.7-102.3L2794.4,1194.8z"></path> <path class="st13" d="M2693.4,867.6h-60.6l-23.5,101.6v195c0,0,55.7,27,128.9-8.3l-21.4-228.2L2693.4,867.6z"></path> <path class="st11" d="M2693.4,867.6c0,0,91.5,38.7,109.5,63.6c16.6,23,14.3,1.1,62.1,130.1c6.3,16.9,3.5,35.5-6.7,49.6 c-4.2,5.8-10.1,10.1-16.8,12.6l-47.1,17.6l5,119.8l-91.3,9L2693.4,867.6z"></path> <path class="st11" d="M2632.8,867.6c0,0-91.5,38.7-109.5,63.6c-18,24.9,3.5,329.8,3.5,329.8l91.3,9L2632.8,867.6z"></path> <polygon class="st10" points="2673.8,879 2663.1,897.2 2685.3,1153.9 2651.1,1209.2 2625.6,1152.5 2650.3,895.6 2642.5,877.5 2663.4,869.7 "></polygon> <polygon class="st13" points="2693.4,867.6 2688.9,857.7 2660.4,867.6 2636.8,856.8 2632.8,867.6 2637.8,886.3 2659.3,872.3 2680.3,887.6 "></polygon> <path class="st6" d="M2713.2,679.1c-1.7-1.8-5-3.2-6.4-1.2c-0.6,0.8-0.6,1.9-0.5,2.9c0.2,2.9,0.9,5.8,2,8.5 c-10.2-12-27.3-15.7-43-15.5c-15.7,0.2-31.4,3.7-47.1,2.9c-6.2-0.3-13.7-0.7-17.4,4.3c-2.6,3.5-2,8.7,0.6,12.2 c2.6,3.5,6.7,5.6,10.9,6.6c-3.2-1.4-7.3-0.4-9.7,2.2c-2.3,2.6-2.8,6.8-1,9.9c2.7,4.7,8.9,5.7,14.2,6.1c17.1,1.4,34.3,1.9,51.4,1.5 c-2.5,2-5,4-7.5,6c-0.9,0.7-1.7,1.4-2.1,2.4c-0.6,1.4-0.1,3,0.7,4.3c2.1,3.3,6.1,4.9,10,5.1c3.9,0.3,7.7-0.6,11.6-1.2 c5.6-0.9,11.3-1.3,17-1.2c1.2,0,2.4,0.1,3.4,0.6c1.4,0.7,2.4,2,3.4,3.3c6,7.3,15.6,10.3,24.6,13.1c2.8,0.9,6.5,1.4,8.1-1.1 c0.6-1,0.7-2.2,0.7-3.3c0.4-13.6-2.9-27.3-9.5-39.2c1.7,3.1,5.9,3.8,7.8,0.3c2.4-4.5-3.3-8.3-6.5-10.1c-2.9-1.7-5.7-2.1-7.9-4.9 C2717.8,689.1,2717.4,683.4,2713.2,679.1z"></path> <path class="st13" d="M2651.4,808.8l-32-7.7c0,0,1.8,17.8,13.5,17.8C2644.5,818.8,2651.4,808.8,2651.4,808.8z"></path> <polygon class="st17" points="2729.1,884 2711.2,958 2729.1,965.5 2702.6,1119 2693.4,867.6 "></polygon> <path class="st11" d="M2545.7,912.3c0,0-30.3,16.7-43.1,53.5c-12.8,36.8-30.8,94.3-54.9,103c-19.2,6.9-53.2-75.5-53.2-75.5 l-44.9,15.6c0,0,28.1,168.2,115.3,153.1c55.5-9.6,73.7-131.4,73.7-131.4L2545.7,912.3z"></path> <polygon class="st17" points="2597.1,884 2615.1,958 2597.1,965.5 2623.6,1119 2632.8,867.6 "></polygon> <g> <path class="st9" d="M2708.8,1112.9c0,0-25.8-9.2-35.8-10.5c-10.1-1.3-18.9-10-21.5-4.7c-2.7,5.2,14.1,15.1,14.1,15.1 s-19.4,7-25.7,8.3c-6.3,1.2-17,6.3-16.4,11c0.6,4.7,30.3-3.4,30.3-3.4s-24.4,9.3-24.8,13.7c-0.4,4.4,32.4-2.8,32.4-2.8 s-26.5,8.6-28,11.1c-1.5,2.5,1.6,4.5,11.8,3.7c10.1-0.8,20.3-4.2,20.3-4.2s-18.2,7.5-20,9.1c-1.9,1.7-3.2,5.3,11.7,2.6 c14.9-2.7,46.1-13.9,59.4-25.8L2708.8,1112.9z"></path> </g> <path class="st3" d="M2531.4,1392L2531.4,1392c-0.6,0-1.1-0.5-1.1-1.1c0-0.4,0.3-38.1,22.7-67.5c14.2-18.6,82.4-60.4,85.3-62.2 c0.5-0.3,1.2-0.2,1.5,0.4c0.3,0.5,0.2,1.2-0.4,1.5c-0.7,0.4-70.7,43.4-84.7,61.7c-21.9,28.7-22.2,65.7-22.2,66.1 C2532.6,1391.5,2532.1,1392,2531.4,1392z"></path> <path class="st18" d="M2722.1,1156.2c-0.2,0-0.5-0.2-0.5-0.4l-14.8-48.1c-0.1-0.2,0-0.5,0.3-0.6l80.8-46.5l-22.5-53.8 c-0.1-0.3,0-0.6,0.3-0.7c0.3-0.1,0.6,0,0.7,0.3l22.7,54.2c0.1,0.3,0,0.6-0.2,0.7l-80.8,46.6l14.5,47.2l71.9-14.3 c0.3-0.1,0.6,0.1,0.7,0.4c0.1,0.3-0.1,0.6-0.4,0.7l-72.4,14.4C2722.2,1156.2,2722.1,1156.2,2722.1,1156.2z"></path> </g> <rect x="920" y="1198.1" class="st6" width="1632" height="35.2"></rect> <path class="st6" d="M2232.8,1752.7c-0.1,0-0.1,0-0.2,0c-1.8-0.1-3.3-1.7-3.2-3.5l27.2-533.6c0.1-1.8,1.7-3.3,3.5-3.2 c1.8,0.1,3.3,1.7,3.2,3.5l-27.2,533.6C2236.1,1751.3,2234.6,1752.7,2232.8,1752.7z"></path> <path class="st6" d="M2494.5,1752.7c-1.8,0-3.2-1.4-3.3-3.2l-27.2-533.6c-0.1-1.8,1.3-3.4,3.2-3.5c1.9-0.1,3.4,1.3,3.5,3.2 l27.2,533.6c0.1,1.8-1.3,3.4-3.2,3.5C2494.6,1752.7,2494.6,1752.7,2494.5,1752.7z"></path> <g> <polygon class="st3" points="2172.6,1046.6 2379.5,1046.3 2444.6,1197.7 2237.7,1198 "></polygon> <rect x="2404" y="1188.5" transform="matrix(-1 1.402264e-03 -1.402264e-03 -1 4948.2173 2382.6477)" class="st3" width="138.6" height="9.2"></rect> <path class="st13" d="M2297.2,1119.9c0-5-4-9.1-9.1-9.2c-5,0-9.1,4-9.2,9.1c0,5,4,9.1,9.1,9.2S2297.2,1125,2297.2,1119.9z"></path> </g> <g> <path class="st3" d="M805.5,1756.3c-0.4,0-0.9-0.1-1.3-0.2c-3-0.7-4.8-3.7-4.1-6.7l32.6-133.3c0.7-3,3.7-4.8,6.7-4.1 c3,0.7,4.8,3.7,4.1,6.7l-32.6,133.3C810.3,1754.6,808,1756.3,805.5,1756.3z"></path> <path class="st3" d="M622,1756.3c-0.4,0-0.9-0.1-1.3-0.2c-3-0.7-4.8-3.7-4.1-6.7l47.3-193.4c0.7-3,3.7-4.8,6.7-4.1 c3,0.7,4.8,3.7,4.1,6.7l-47.3,193.4C626.8,1754.6,624.5,1756.3,622,1756.3z"></path> <path class="st10" d="M695.3,1061.4c325.9,0,263.3,335.2,366,329.4c102.7-5.8,150.4,236.4-223.2,236.4S395.3,1061.4,695.3,1061.4z "></path> <g> <path class="st9" d="M1141.5,1646.9c0,0-0.8,55.3-0.4,56.1c0.4,0.8-4,7.7-4,7.7l-17.5,3.1l-15.9-7.3c0,0,1.4-51.4-0.3-59.6 C1101.7,1638.9,1141.5,1646.9,1141.5,1646.9z"></path> <path class="st3" d="M1103.7,1706.5c0,0,20.1,7,37.3-4.6c0,0,67,25.1,64.9,44.2c0,0,2.9,5.7-26.2,4.5c-29-1.2-74.1-2.5-75.3-3.2 C1103.2,1746.7,1097.5,1749.8,1103.7,1706.5z"></path> <path class="st9" d="M972.5,1646.9c0,0-0.8,55.3-0.4,56.1c0.4,0.8-4,7.7-4,7.7l-17.5,3.1l-15.9-7.3c0,0,1.4-51.4-0.3-59.6 C932.7,1638.9,972.5,1646.9,972.5,1646.9z"></path> <path class="st3" d="M934.7,1706.5c0,0,20.1,7,37.3-4.6c0,0,67,25.1,64.9,44.2c0,0,2.9,5.7-26.2,4.5c-29-1.2-74.1-2.5-75.3-3.2 C934.2,1746.7,928.5,1749.8,934.7,1706.5z"></path> <g> <g> <path class="st12" d="M817.5,990.9c0,0,5.8-7,9.5-3.5c9.2,9-2,17.9-8.9,19.4L817.5,990.9z"></path> <path class="st9" d="M822.8,963.3L822.8,963.3c0.1-0.8,0.2-1.6,0.3-2.4c3.9-35.4-22.8-67.1-59-68.7 c-30.1-1.3-57.2,19.8-63.3,49.3c-2.3,11-1.5,21.7,1.7,31.5c4.1,15,7.8,27.9,12,38.7c6.9,17.9,7.6,37.7,2.3,56.1l-4.1,14.5 c35.6,24.3,55,7.5,55,7.5l3.7-27.1c0.5-3.5,3.6-6.1,7.2-5.9c0,0,0,0,0.1,0C825.7,1059,820.4,984.5,822.8,963.3z"></path> <path class="st19" d="M755.8,988.6c0.4-3.2-1.9-6-5.1-6.4c-3.2-0.3-6,1.9-6.4,5.1c-0.3,3.2,1.9,6,5.1,6.4 C752.6,994.1,755.4,991.8,755.8,988.6z"></path> <path class="st19" d="M807.8,984.1c0.3-3.2-1.9-6-5.1-6.4c-3.2-0.3-6,1.9-6.4,5.1c-0.3,3.2,1.9,6,5.1,6.4 C804.6,989.5,807.5,987.2,807.8,984.1z"></path> <path class="st19" d="M736.2,977.4c-0.6-0.1-1.2-0.3-1.7-0.7c-1.5-1.1-1.8-3.3-0.6-4.7c3.4-4.5,13-10.9,25.2-3 c1.6,1,2,3.1,1,4.7c-1,1.6-3.1,2-4.7,1c-10-6.4-15.9,1.1-16.1,1.5C738.5,977.1,737.4,977.5,736.2,977.4z"></path> <path class="st19" d="M791,974.4c-0.6-0.1-1.2-0.3-1.7-0.7c-1.5-1.1-1.8-3.3-0.6-4.7c3.4-4.5,13.1-10.9,25.2-3 c1.6,1,2,3.1,1,4.7c-1,1.6-3.1,2-4.7,1c-10-6.4-15.9,1.1-16.1,1.5C793.3,974.1,792.1,974.5,791,974.4z"></path> <polygon class="st3" points="693.9,951 706,994.5 717.4,993.5 730.1,940.5 "></polygon> <path class="st9" d="M719.3,992.3c-0.8-2.1-2.3-3.8-4.3-4.9c-4.1-2.2-11.4-4.9-17.1-0.3c-8.4,6.7,4.6,28.5,20.7,20.2 C718.7,1007.3,723.4,1003.5,719.3,992.3z"></path> <path class="st12" d="M782.9,1012.7c-5.8,2.1-10.4-1.4-10.4-1.5c-0.4-0.3-0.5-1-0.2-1.4c0.3-0.4,1-0.5,1.4-0.2 c0.2,0.2,5.3,4,11.3-0.4c1-0.7,1.5-1.3,1.6-1.8c0.1-0.7-0.6-1.7-1.6-3c-2.3-3.1-6.1-8.3-6.3-19.1c0-0.6,0.4-1,1-1 c0.6,0,1,0.4,1,1c0.2,10.1,3.6,14.8,5.9,17.9c1.2,1.7,2.2,3,2,4.5c-0.2,1.1-0.9,2-2.4,3.1 C785.1,1011.7,784,1012.3,782.9,1012.7z"></path> <path class="st13" d="M758.6,1020.5c0,0,23.1,5.5,38.6,0.2c0,0-5.7,17.6-19.4,17.5C764.1,1038.2,758.6,1020.5,758.6,1020.5z"></path> <path class="st3" d="M815.5,938.3c0,0,8.2,7.2,6.2,44.8c0,0,7.6-41.3,3.5-46.4C821.1,931.6,815.5,938.3,815.5,938.3z"></path> </g> <path class="st3" d="M691.3,937c1-9.1,5.1-17.6,9.8-25.5c-4.3,0.5-9.2,0.9-12.6-1.7c-3.5-2.6-3.4-9.5,0.9-10.4 c2.5-0.5,4.9,1.2,7.4,1.5c5.7,0.8,9.9-5.3,11.7-10.8c1.8-5.5,3.5-12,8.7-14.4c1.6-0.8,3.5-1,5.3-0.8c1.3,6.7,0.3,13.8-2.8,19.9 c6.9-8.4,15.5-15.4,25.1-20.4c7.5-3.9,16.3-6.7,24.3-4c1.7,6.5-9.2,9.6-10.5,16.2c14.4-3.6,29.3-4.9,44.1-4 c3.8,0.2,7.7,0.7,11.1,2.3c3.4,1.7,6.3,4.9,6.7,8.7c0.4,5-4.4,9.8-9.4,9.3c7.3,3.4,14.7,6.9,20.9,12.1 c6.2,5.2,11.1,12.4,11.9,20.4c-5.4,0.1-10.8-1.3-15.5-3.9c3.2,3,6,7.6,4.4,11.7c-1.2,3-4.6,4.7-7.9,4.9 c-3.3,0.2-6.5-0.8-9.6-1.8c-15.8-5.1-31.5-10.2-47.3-15.3c6.2,6.7,10.6,14.9,12.8,23.7c-14.3-1.7-28.1-7.7-39.1-17.1 c-1.3,6.8-3.6,13.3-6.8,19.4c-0.5,1-1.1,2-2,2.5c-3.2,1.7-5.8-3-8.6-5.2c-3.5-2.7-8.7-1.6-12.6,0.6c-6.7,3.7-11.4,9-16.6,1 C691.5,950.4,690.6,943.2,691.3,937z"></path> </g> <path class="st11" d="M1071.1,1371.9c0,0,64.8,5.2,85.6,87.8c12.1,48,7.3,204.2,7.3,204.2l-84,13.2c0,0,7.5-174.6-57.5-228.4 c0,0,13.2,35.5-34.5,237.2h-62.4l-20.8-206.7c0,0-146.7,4.9-190.8-31.8c-44-36.7-48.4-80.6-48.4-80.6l207.4-31.5L1071.1,1371.9z"></path> <path class="st13" d="M698.5,1091.3c0,0,4.1-31.4,10.6-29.8c6.5,1.6,64.4,12.2,70.1,11c5.7-1.2,0,26.5,0,26.5s65.2,5.9,81.5,33.6 c16.3,27.7,54.2,133,68.1,141.9c13.9,9,41.2,33.9,41.2,33.9l-112.7,63.4l-106.8-5c0,0-77.2,46.3-137.6,10.2 c-60.3-36-49.7-225.2,7.3-258.6C677.3,1085.1,698.5,1091.3,698.5,1091.3z"></path> <path class="st3" d="M888.3,1342.8c-0.1,0-0.1,0-0.2,0c-32.4-14.1-49.8-154.4-50.5-160.3c0-0.3,0.2-0.6,0.5-0.6 c0.3-0.1,0.6,0.2,0.6,0.5c0.2,1.5,18.1,145.6,49.9,159.5c0.3,0.1,0.4,0.5,0.3,0.7C888.7,1342.7,888.5,1342.8,888.3,1342.8z"></path> <path class="st3" d="M750.5,1367.5c-0.2,0-0.4-0.1-0.5-0.3c-0.1-0.3,0-0.6,0.3-0.7L774,1356l-3.3-41.4c-5.9-1.2-73.1-14.3-105-18 c-0.3,0-0.5-0.3-0.5-0.5c-0.1-3.2-1.2-77.5,3.7-88.5c0.1-0.3,0.5-0.4,0.7-0.3c0.3,0.1,0.4,0.5,0.3,0.7c-4.6,10.3-3.7,81-3.6,87.6 c33.5,4,104.3,17.9,105,18c0.2,0,0.4,0.3,0.4,0.5l3.4,42.2c0,0.2-0.1,0.5-0.3,0.6l-24.1,10.5 C750.6,1367.4,750.6,1367.5,750.5,1367.5z"></path> <path class="st3" d="M1022.4,1449.3c-0.3,0-0.5-0.2-0.5-0.5c0-0.2-3.6-18.4-21.7-37.3c-16.7-17.5-49.5-39.4-111-43.8 c-0.3,0-0.5-0.3-0.5-0.6c0-0.3,0.3-0.5,0.6-0.5c61.9,4.5,94.9,26.5,111.7,44.2c18.3,19.2,21.9,37.7,21.9,37.8 c0.1,0.3-0.1,0.6-0.4,0.6C1022.5,1449.3,1022.5,1449.3,1022.4,1449.3z"></path> <g> <g> <path class="st20" d="M793.3,1320c0,0,1.6,0,4.3,0.1c13.4,0.4,53.4,1.8,58.1,3.4c5.6,2-11.2,36.9-11.2,36.9s-48.1,2.6-63.6-7.7 C765.4,1342.4,793.3,1320,793.3,1320z"></path> <path class="st20" d="M838.1,1360.7c0,0,26.8,12.1,29.2,9.5c2.4-2.7-21-16.2-21-16.2L838.1,1360.7z"></path> <path class="st20" d="M845.4,1352.1c0,0,39.7,16.3,42.7,10.9c3-5.5-41-19.7-41-19.7L845.4,1352.1z"></path> <path class="st20" d="M850.7,1342.4c0,0,41,12.8,43.5,7.1c2.5-5.7-42.5-16-42.5-16L850.7,1342.4z"></path> <path class="st20" d="M852.8,1332.1c0,0,38.3,12.5,40.7,6.8c2.4-5.7-39.7-15.7-39.7-15.7L852.8,1332.1z"></path> </g> <polygon class="st20" points="802.5,1321.1 772.2,1317.3 775,1351.5 790.6,1355 "></polygon> </g> <g> <polygon class="st5" points="1144.7,1215.4 923.5,1215.1 853.9,1376.8 1075.1,1377.2 "></polygon> <rect x="749.3" y="1367" transform="matrix(1 1.404520e-03 -1.404520e-03 1 1.9277 -1.155)" class="st5" width="148.1" height="9.8"></rect> <path class="st13" d="M1011.5,1293.8c0-5.4,4.3-9.8,9.7-9.8c5.4,0,9.8,4.3,9.8,9.7c0,5.4-4.3,9.8-9.7,9.8 S1011.5,1299.1,1011.5,1293.8z"></path> </g> </g> </g> <g> <path class="st10" d="M1840.2,373.7c0-80.7-70.9-146.1-158.3-146.1c-87.4,0-158.3,65.4-158.3,146.1c0,39.1,16.7,74.7,43.8,100.9 c24.6,23.8,38.7,56.3,38.7,90.5l0,0c0,27.7,22.4,50.1,50.1,50.1h51.2c27.7,0,50.1-22.4,50.1-50.1l0,0c0-34.2,14.1-66.8,38.7-90.5 C1823.5,448.4,1840.2,412.8,1840.2,373.7z"></path> <path class="st6" d="M1709.7,633.4c-1,0-1.8-0.8-1.9-1.8c-0.9-16.3,23.8-270.8,24.9-281.6c0.1-1,1-1.8,2-1.7c1,0.1,1.8,1,1.7,2 c-0.3,2.6-25.7,265.1-24.9,281.1c0.1,1-0.7,1.9-1.8,2C1709.7,633.4,1709.7,633.4,1709.7,633.4z"></path> <path class="st6" d="M1652.7,633.4c0,0-0.1,0-0.1,0c-1-0.1-1.8-0.9-1.8-2c0.9-16-24.6-278.4-24.9-281.1c-0.1-1,0.6-1.9,1.7-2 c1-0.1,1.9,0.6,2,1.7c1.1,10.8,25.7,265.3,24.9,281.6C1654.5,632.6,1653.7,633.4,1652.7,633.4z"></path> <path class="st6" d="M1676.4,415.2c-4.8,0-9.8-1.7-14-4.9c-3,2.1-6.6,3.5-10.5,3.1c-5.3-0.5-10.4-4.1-13.6-9.7 c-2.8-4.8-7.2-21.2-8.4-26.9c-0.1-0.5,0.2-1,0.7-1.1c0.5-0.1,1,0.2,1.1,0.7c1.2,5.9,5.6,21.9,8.2,26.3c3,5.1,7.5,8.4,12.2,8.8 c3.2,0.3,6.3-0.8,8.9-2.5c0,0,0,0,0,0c-6.8-6.2-9.4-15-10.3-21.2c-1.2-7.8-0.2-14.3,2.9-19.3c1.4-2.3,3.2-3.9,5.1-4.7 c5-2,10.7,1.5,13,6.1c2.2,4.5,2,9.7,1.6,14.6c-0.5,6.1-1.4,13.1-4.7,19.1c-1.1,2-2.7,3.9-4.6,5.6c5.7,4.3,13.1,5.5,18.9,3 c2.5-1,4.7-2.7,6.5-4.9c-2.3-1.4-4.3-3.4-5.4-5.8c-1.3-2.8-1.6-5.8-1.8-8.7c-0.5-8.6,0.5-17.2,2.8-25.5c0.1-0.3,0.3-0.5,0.6-0.6 c2.9-0.9,5.9,0.8,7.4,2.8c1.6,2.1,2.2,4.7,2.6,7.2c1.1,5.9,2.2,13.5,0.5,20.8c-0.8,3.4-2.2,6.5-4,9.2c3.2,1.4,7,1.7,10.5,0.6 c1.9-0.6,3.7-1.5,5.4-2.7c-1.3-2-2.2-4-2.8-5.7c-4.7-13.1-4.3-28.1,1.1-40.9c0.1-0.2,0.3-0.4,0.6-0.5c4-1.4,8.2,1.1,10.3,4.3 c2.1,3.3,2.6,7.3,2.8,10.7c0.5,6.1,0.6,14-2,21.3c-1.6,4.5-4.2,8.3-7.4,11.1c1.6,2,3.7,3.7,6.5,3.9c2.3,0.2,4.3-0.7,5.6-1.4 c4.5-2.6,7.2-8.3,6.3-13.4c-0.1-0.5,0.3-1,0.8-1.1c0.5-0.1,1,0.3,1.1,0.8c1,6-2,12.3-7.2,15.3c-2.2,1.3-4.5,1.9-6.6,1.7 c-3.3-0.3-5.9-2.2-7.8-4.6c-1.8,1.3-3.8,2.4-5.9,3c-4.1,1.3-8.5,0.8-12.2-0.8c-2.1,2.5-4.6,4.5-7.5,5.7 C1681.4,414.8,1678.9,415.2,1676.4,415.2z M1661.8,365.1c-0.8,0-1.6,0.1-2.4,0.5c-1.6,0.6-3,2-4.2,4c-2.8,4.5-3.8,10.8-2.7,18.1 c0.9,5.9,3.3,14.3,9.7,20.1c0.1,0.1,0.2,0.2,0.3,0.3c1.8-1.5,3.4-3.4,4.5-5.3c3.2-5.6,4-12.4,4.5-18.3c0.4-4.7,0.6-9.5-1.4-13.6 C1668.5,367.6,1665.2,365.1,1661.8,365.1z M1686.7,368.2c-2.2,8-3,16.2-2.6,24.4c0.1,2.7,0.4,5.5,1.6,8c1,2.1,2.8,3.9,4.9,5.1 c1.8-2.5,3.1-5.5,3.8-8.7c1.6-7,0.5-14.4-0.6-20.1c-0.4-2.3-1-4.6-2.3-6.4C1690.5,369.1,1688.5,367.9,1686.7,368.2z M1708,358.9 c-5.1,12.3-5.5,26.6-0.9,39.2c0.5,1.3,1.3,3.2,2.5,5.1c2.9-2.6,5.3-6.1,6.8-10.2c2.6-7.1,2.4-14.7,1.9-20.6 c-0.2-3.2-0.7-6.9-2.6-9.8C1714.2,360.2,1711,358.1,1708,358.9z"></path> <path class="st21" d="M1732.2,695.5h-100.6c-7.3,0-13.3-6-13.3-13.3v-23h127.2v23C1745.5,689.5,1739.6,695.5,1732.2,695.5z"></path> <path class="st6" d="M1689.7,676.7c-37.5,0-70.8-10.7-72.9-11.4c-6.4-2.1-9.8-8.9-7.8-15.3c2.1-6.4,8.9-9.8,15.3-7.8 c1.1,0.4,70.3,22.3,113.5,0.7c6-3,13.3-0.6,16.3,5.4c3,6,0.6,13.3-5.4,16.3C1730.6,673.7,1709.6,676.7,1689.7,676.7z"></path> <path class="st21" d="M1689.7,657c-37.5,0-70.8-10.7-72.9-11.4c-6.4-2.1-9.8-8.9-7.8-15.3c2.1-6.4,8.9-9.8,15.3-7.8 c1.1,0.4,70.3,22.3,113.5,0.7c6-3,13.3-0.6,16.3,5.4c3,6,0.6,13.3-5.4,16.3C1730.6,654,1709.6,657,1689.7,657z"></path> <path class="st6" d="M1689.7,637.3c-37.5,0-70.8-10.7-72.9-11.4c-6.4-2.1-9.8-8.9-7.8-15.3c2.1-6.4,8.9-9.8,15.3-7.8 c1.1,0.4,70.3,22.3,113.5,0.7c6-3,13.3-0.6,16.3,5.4c3,6,0.6,13.3-5.4,16.3C1730.6,634.3,1709.6,637.3,1689.7,637.3z"></path> </g> <g> <ellipse transform="matrix(0.9871 -0.1602 0.1602 0.9871 -48.1828 164.2461)" class="st22" cx="994.7" cy="381" rx="108.5" ry="108.5"></ellipse> <circle class="st13" cx="992.6" cy="380.2" r="86.3"></circle> <circle class="st22" cx="992.5" cy="379.3" r="9.7"></circle> <g> <path class="st22" d="M992.5,381.2h-1.9c-1.1,0-1.9-0.9-1.9-1.9c0-1.1,0.9-1.9,1.9-1.9h0l0.1-59.6l-2.4,3.5 c-0.6,0.9-1.8,1.1-2.7,0.5c-0.9-0.6-1.1-1.8-0.5-2.7l5.9-8.6c0.5-0.7,1.3-1,2.2-0.7c0.8,0.2,1.3,1,1.3,1.8l-0.1,67.7 C994.4,380.4,993.5,381.2,992.5,381.2z"></path> <path class="st22" d="M999.1,321.6c-0.6,0-1.1-0.2-1.5-0.7l-6.5-8c-0.7-0.8-0.5-2,0.3-2.7c0.8-0.7,2-0.5,2.7,0.3l6.5,8 c0.7,0.8,0.5,2-0.3,2.7C999.9,321.5,999.5,321.6,999.1,321.6z"></path> </g> <g> <path class="st22" d="M957.7,387.5c-0.5,0-1-0.2-1.4-0.6l-5.7-5.9c-0.5-0.6-0.7-1.4-0.4-2.1c0.3-0.7,1-1.2,1.8-1.2h0l45,0.1 c1.1,0,1.9,0.9,1.9,1.9v1.9c0,1.1-0.9,1.9-1.9,1.9c-1.1,0-1.9-0.9-1.9-1.9v0l-38.6-0.1l2.5,2.6c0.7,0.8,0.7,2,0,2.7 C958.7,387.3,958.2,387.5,957.7,387.5z"></path> <path class="st22" d="M952,381.6c-0.4,0-0.9-0.1-1.2-0.4c-0.8-0.7-0.9-1.9-0.3-2.7l5.3-6.5c0.7-0.8,1.9-0.9,2.7-0.3 c0.8,0.7,0.9,1.9,0.3,2.7l-5.3,6.5C953.1,381.3,952.5,381.6,952,381.6z"></path> </g> </g> <g> <path class="st4" d="M2629.8,611.7h-86.1c-2.1,0-3.8-1.7-3.8-3.8v-86.1c0-2.1,1.7-3.8,3.8-3.8h86.1c2.1,0,3.8,1.7,3.8,3.8V608 C2633.6,610.1,2631.9,611.7,2629.8,611.7z M2547.5,604.2h78.5v-78.5h-78.5V604.2z"></path> <path class="st4" d="M2586.8,591.6C2586.8,591.6,2586.7,591.6,2586.8,591.6c-1.4,0-2.6-0.8-3.3-1.9c-0.1-0.2-11.8-21.2-26.7-34.3 c-1.6-1.4-1.7-3.8-0.3-5.3c1.4-1.6,3.8-1.7,5.3-0.3c11.2,9.9,20.4,23.4,25,30.9c28.3-46.2,49.2-72.7,49.4-72.9 c1.3-1.6,3.7-1.9,5.3-0.6c1.6,1.3,1.9,3.7,0.6,5.3c-0.2,0.3-22.4,28.5-52.2,77.5C2589.3,590.9,2588.1,591.6,2586.8,591.6z"></path> </g> <g> <path class="st4" d="M2460.1,476.9H2374c-2.1,0-3.8-1.7-3.8-3.8v-86.1c0-2.1,1.7-3.8,3.8-3.8h86.1c2.1,0,3.8,1.7,3.8,3.8v86.1 C2463.9,475.3,2462.2,476.9,2460.1,476.9z M2377.8,469.4h78.5v-78.5h-78.5V469.4z"></path> <path class="st4" d="M2417.1,456.8C2417.1,456.8,2417,456.8,2417.1,456.8c-1.4,0-2.6-0.8-3.3-1.9c-0.1-0.2-11.8-21.2-26.7-34.3 c-1.6-1.4-1.7-3.8-0.3-5.3c1.4-1.6,3.8-1.7,5.3-0.3c11.2,9.9,20.4,23.4,25,30.9c28.3-46.2,49.2-72.7,49.4-72.9 c1.3-1.6,3.7-1.9,5.3-0.6c1.6,1.3,1.9,3.7,0.6,5.3c-0.2,0.3-22.4,28.5-52.2,77.5C2419.6,456.1,2418.4,456.8,2417.1,456.8z"></path> </g> <g> <polygon class="st13" points="1090.9,682.1 941.3,682.1 941.3,952.4 1132.9,952.4 1132.9,719.3 "></polygon> <path class="st22" d="M1144.7,720.5h-53.8c-0.6,0-1.1-0.5-1.1-1.1v-37.3c0-0.6,0.5-1.1,1.1-1.1c0.6,0,1.1,0.5,1.1,1.1v36.2h52.7 c0.6,0,1.1,0.5,1.1,1.1C1145.8,720,1145.3,720.5,1144.7,720.5z"></path> <path class="st4" d="M1074.6,718.3h-79.9c-0.6,0-1.1-0.5-1.1-1.1c0-0.6,0.5-1.1,1.1-1.1h79.9c0.6,0,1.1,0.5,1.1,1.1 C1075.7,717.8,1075.2,718.3,1074.6,718.3z"></path> <path class="st4" d="M1117.8,753.2H956.4c-0.6,0-1.1-0.5-1.1-1.1c0-0.6,0.5-1.1,1.1-1.1h161.4c0.6,0,1.1,0.5,1.1,1.1 C1118.9,752.7,1118.4,753.2,1117.8,753.2z"></path> <path class="st4" d="M1117.8,765.3H956.4c-0.6,0-1.1-0.5-1.1-1.1c0-0.6,0.5-1.1,1.1-1.1h161.4c0.6,0,1.1,0.5,1.1,1.1 C1118.9,764.8,1118.4,765.3,1117.8,765.3z"></path> <path class="st4" d="M1117.8,782.7H956.4c-0.6,0-1.1-0.5-1.1-1.1c0-0.6,0.5-1.1,1.1-1.1h161.4c0.6,0,1.1,0.5,1.1,1.1 C1118.9,782.2,1118.4,782.7,1117.8,782.7z"></path> <path class="st4" d="M1117.8,794.8H956.4c-0.6,0-1.1-0.5-1.1-1.1c0-0.6,0.5-1.1,1.1-1.1h161.4c0.6,0,1.1,0.5,1.1,1.1 C1118.9,794.3,1118.4,794.8,1117.8,794.8z"></path> <path class="st4" d="M1117.8,807H956.4c-0.6,0-1.1-0.5-1.1-1.1c0-0.6,0.5-1.1,1.1-1.1h161.4c0.6,0,1.1,0.5,1.1,1.1 C1118.9,806.5,1118.4,807,1117.8,807z"></path> <path class="st4" d="M1117.8,819.1H956.4c-0.6,0-1.1-0.5-1.1-1.1c0-0.6,0.5-1.1,1.1-1.1h161.4c0.6,0,1.1,0.5,1.1,1.1 C1118.9,818.6,1118.4,819.1,1117.8,819.1z"></path> <path class="st4" d="M1117.8,865.2H956.4c-0.6,0-1.1-0.5-1.1-1.1c0-0.6,0.5-1.1,1.1-1.1h161.4c0.6,0,1.1,0.5,1.1,1.1 C1118.9,864.7,1118.4,865.2,1117.8,865.2z"></path> <path class="st4" d="M1117.8,877.4H956.4c-0.6,0-1.1-0.5-1.1-1.1c0-0.6,0.5-1.1,1.1-1.1h161.4c0.6,0,1.1,0.5,1.1,1.1 C1118.9,876.9,1118.4,877.4,1117.8,877.4z"></path> <path class="st4" d="M1117.8,889.6H956.4c-0.6,0-1.1-0.5-1.1-1.1c0-0.6,0.5-1.1,1.1-1.1h161.4c0.6,0,1.1,0.5,1.1,1.1 C1118.9,889.1,1118.4,889.6,1117.8,889.6z"></path> <path class="st4" d="M1117.8,901.7H956.4c-0.6,0-1.1-0.5-1.1-1.1c0-0.6,0.5-1.1,1.1-1.1h161.4c0.6,0,1.1,0.5,1.1,1.1 C1118.9,901.2,1118.4,901.7,1117.8,901.7z"></path> </g> </g> </svg> 